<svg width="769" height="500" viewBox="0 0 769 500" fill="none" xmlns="http://www.w3.org/2000/svg">
<g clip-path="url(#clip0_1_56)">
<path d="M214.083 435.968L170.672 440.686L149.91 426.533L137.89 440.686L143.66 470.551L150.266 494.141L190.323 473.8L222.576 470.881L214.083 435.968Z" fill="#FBBEBE"/>
<path d="M433.971 385.959L329.217 384.072L201.815 437.856L218.802 474.655L333.936 442.573L512.3 493.527L487.763 372.749L433.971 385.959Z" fill="#2F2E41"/>
<path d="M146.646 439.408L167.467 437.788L140.984 381.85C140.984 381.85 128.715 377.519 126.828 391.007C124.941 404.496 141.039 495.827 145.758 495.827C150.477 495.827 166.309 486.592 166.309 486.592L142.871 442.239L146.646 439.408H146.646Z" fill="#2F2E41"/>
<path d="M668.864 424.092C666.768 424.317 664.482 424.656 662.05 425.151C651.739 427.25 651.525 434.25 651.615 435.855L651.545 435.812C650.508 437.475 649.859 439.158 649.466 440.746L648.994 419.29C649.299 418.654 649.577 417.932 649.809 417.192C650.581 419.569 651.846 421.814 652.937 421.665C654.355 421.472 654.973 417.299 654.708 414.334C656.512 416.656 659.547 419.14 660.692 418.374C661.607 417.762 661.065 415.243 660.066 412.953C662.147 414.206 664.452 415.03 665.168 414.234C666.144 413.148 663.805 409.441 661.648 407.372C664.535 407.641 668.207 407.181 668.448 405.867C668.646 404.784 666.461 403.418 664.122 402.539C666.471 401.92 668.668 400.84 668.595 399.773C668.509 398.504 665.247 397.655 662.433 397.525C664.555 395.865 666.506 393.57 665.909 392.532C665.361 391.577 662.81 391.947 660.457 392.787C661.849 390.797 662.829 388.553 662.083 387.785C661.154 386.829 657.857 388.48 655.607 390.304C656.045 387.462 655.824 383.874 654.549 383.549C653.482 383.278 651.97 385.365 650.933 387.638C650.475 385.252 649.548 382.987 648.478 382.987C646.953 382.987 645.717 387.584 645.717 390.578C645.717 390.748 645.721 390.907 645.729 391.059C645.576 390.882 645.401 390.697 645.2 390.502C643.052 388.416 638.893 386.1 637.83 387.194C637.085 387.962 638.064 390.205 639.457 392.196C637.103 391.355 634.552 390.986 634.004 391.94C633.267 393.222 636.417 396.423 638.977 397.976C638.823 397.957 638.661 397.942 638.489 397.93C635.501 397.726 630.83 398.646 630.726 400.167C630.653 401.235 632.851 402.314 635.2 402.934C632.861 403.813 630.675 405.179 630.874 406.261C631.114 407.575 634.787 408.035 637.674 407.766C635.517 409.835 633.178 413.542 634.154 414.629C634.869 415.425 637.175 414.601 639.256 413.347C638.257 415.637 637.715 418.157 638.629 418.769C639.839 419.577 643.155 416.763 644.903 414.341C644.725 417.304 645.434 421.374 646.841 421.535C647.429 421.602 648.053 420.975 648.615 420.009L647.022 443.071C646.649 445.757 649.032 447.509 649.245 448.616L649.589 464.233C649.201 463.121 648.678 461.982 647.974 460.853L647.904 460.896C647.994 459.291 647.78 452.291 637.469 450.192C635.037 449.697 632.751 449.358 630.655 449.133C628.181 448.867 627.216 452.252 629.451 453.346C632.688 454.93 635.732 456.925 637.319 459.288C641.376 465.33 646.981 461.837 647.778 461.295C648.668 462.777 649.252 464.269 649.621 465.69L649.803 473.984C649.759 474.18 649.728 474.29 649.725 474.298L649.811 474.323L650.253 494.395L654.35 494.362L652.885 473.845C653.131 472.739 653.889 468.968 652.885 465.053L651.419 448.933C651.502 449.356 651.415 448.92 651.419 448.933L649.507 442.599C649.785 440.639 650.43 438.435 651.741 436.254C652.538 436.796 658.143 440.289 662.2 434.247C663.787 431.884 666.831 429.889 670.068 428.305C672.302 427.211 671.337 423.826 668.864 424.092ZM650.145 471.581L650.068 468.071C650.223 469.398 650.215 470.596 650.145 471.581Z" fill="#4A8327"/>
<path d="M649.809 417.192C649.577 417.932 648.921 419.372 648.615 420.009C648.053 420.975 647.429 421.602 646.841 421.535C645.434 421.374 644.725 417.304 644.903 414.341C643.155 416.763 639.839 419.577 638.629 418.769C637.714 418.157 638.257 415.637 639.256 413.347C637.175 414.601 634.869 415.425 634.154 414.629C633.178 413.542 635.517 409.835 637.674 407.766C634.787 408.035 631.114 407.575 630.874 406.261C630.675 405.179 632.861 403.813 635.2 402.934C632.85 402.314 630.653 401.235 630.726 400.167C630.83 398.646 635.501 397.726 638.489 397.93C638.661 397.942 638.823 397.957 638.976 397.976C636.417 396.423 633.267 393.222 634.004 391.94C634.552 390.986 637.103 391.355 639.457 392.196C638.064 390.205 637.085 387.962 637.83 387.194C638.893 386.1 643.052 388.416 645.2 390.502C645.4 390.697 645.576 390.882 645.729 391.059C645.721 390.907 645.717 390.748 645.717 390.578C645.717 387.584 646.953 382.987 648.478 382.987C649.548 382.987 650.475 385.252 650.933 387.638C651.97 385.365 653.482 383.278 654.549 383.549C655.824 383.874 656.045 387.462 655.607 390.304C657.857 388.48 661.154 386.829 662.083 387.785C662.828 388.553 661.849 390.797 660.457 392.787C662.81 391.947 665.361 391.577 665.909 392.532C666.506 393.57 664.555 395.865 662.433 397.525C665.247 397.655 668.509 398.504 668.595 399.773C668.668 400.84 666.471 401.92 664.121 402.539C666.461 403.418 668.646 404.784 668.448 405.867C668.207 407.181 664.535 407.641 661.648 407.372C663.805 409.441 666.144 413.148 665.167 414.234C664.452 415.03 662.147 414.206 660.066 412.953C661.065 415.243 661.607 417.762 660.692 418.374C659.547 419.14 656.512 416.656 654.708 414.334C654.973 417.299 654.355 421.472 652.936 421.665C651.846 421.814 650.581 419.569 649.809 417.192Z" fill="#FFD600"/>
<path d="M0 494.015C0 494.983 0.776856 495.759 1.74425 495.759H767.256C768.223 495.759 769 494.983 769 494.015C769 493.048 768.223 492.271 767.256 492.271H1.74425C0.776856 492.271 0 493.048 0 494.015Z" fill="#3F3D56"/>
<path d="M576.473 172.711C568.642 169.749 569.111 165.264 558.542 159.501C554.01 157.029 550.392 155.056 545.33 154.783C536.399 154.3 529.591 159.464 524.568 163.275C517.254 168.823 513.381 175.048 511.356 178.372C507.959 183.947 506.391 188.599 504.75 193.469C502.336 200.633 501.412 205.996 500.031 214.228C497.971 226.514 496.941 232.657 498.144 237.817C500.374 247.385 505.282 248.049 504.75 253.858C503.851 263.671 489.588 264.582 487.763 274.617C486.249 282.94 494.124 292.958 502.862 296.319C508.166 298.359 513.049 297.663 526.456 293.488C562.019 282.415 567.726 274.839 579.304 278.391C585.889 280.411 589.49 284.533 599.122 284.996C605.282 285.292 612.714 284.035 613.278 281.222C613.995 277.644 602.798 275.545 601.953 268.955C601.067 262.04 612.74 259.239 613.278 251.027C613.805 242.982 602.851 241.868 597.235 229.325C594.41 223.016 594.723 214.425 595.347 197.244C595.829 183.984 597.114 178.855 593.46 175.541C589.348 171.813 585.181 176.004 576.473 172.711V172.711Z" fill="#391A08"/>
<path d="M513.5 260.5L518.318 225.221L548.517 224.278L560.785 267.682L513.5 260.5Z" fill="#E2ABAB"/>
<path d="M554.295 255.274L505.222 253.386L490.006 284.667L466.529 423.23L589.685 451.066C589.685 451.066 597.235 296.319 580.248 274.617C563.261 252.915 554.295 255.274 554.295 255.274V255.274Z" fill="#6385FF"/>
<path d="M529.953 241.62C550.108 241.62 566.448 225.283 566.448 205.13C566.448 184.977 550.108 168.64 529.953 168.64C509.797 168.64 493.457 184.977 493.457 205.13C493.457 225.283 509.797 241.62 529.953 241.62Z" fill="#FBBEBE"/>
<path d="M546.63 235.601C548.465 233.703 556.339 231.662 553.949 226.891C553.164 225.324 551.137 224.255 549.486 224.462C546.355 224.854 545.521 229.713 544.133 229.528C542.301 229.284 541.781 220.552 541.558 211.17C541.196 195.922 541.984 194.326 540.032 191.985C538.235 189.831 536.93 190.419 516.825 187.334C510.037 186.292 507.826 185.863 504.531 186.827C498.267 188.659 495.916 193.238 493.444 192.164C491.064 191.129 490.493 185.687 491.855 181.523C493.8 175.575 499.576 172.582 503.608 170.564C513.902 165.411 521.362 167.087 522.525 163.305C523.397 160.471 519.33 159.133 518.951 153.379C518.544 147.209 522.823 142.744 523.095 142.468C525.785 139.746 528.869 138.907 530.211 138.561C532.09 138.075 534.293 137.506 536.882 138.401C537.4 138.58 540.593 139.738 542.061 142.816C543.461 145.753 542.202 148.157 543.269 148.66C544.479 149.232 546.027 146.099 550.384 144.753C551.304 144.469 552.595 144.084 554.244 144.26C557.705 144.63 559.884 147.166 560.471 147.849C561.992 149.619 562.475 151.364 563.442 154.852C563.939 156.648 564.512 158.772 564.538 161.633C564.556 163.554 564.572 165.302 563.871 167.256C563.871 167.256 562.732 170.434 556.2 175.848C556.2 175.848 558.935 173.135 560.282 173.481C562.587 174.074 571.534 177.093 575.929 185.788C577.916 189.72 579.21 189.113 580.774 193.014C581.142 193.932 583.838 200.955 580.871 208.228C578.601 213.791 575.612 213.147 573.914 218.806C573.103 221.511 573.794 221.633 572.692 229.113C572.059 233.413 566.472 229.991 565.504 231.826C564.85 233.066 574.68 269.498 569.34 274.544C564.109 279.487 541.205 241.207 546.63 235.601H546.63Z" fill="#391A08"/>
<path d="M410.571 146.763C408.525 135.841 401.23 128.042 394.278 129.345C387.326 130.648 383.35 140.557 385.398 151.484C386.156 155.86 387.951 159.99 390.634 163.53L399.885 209.701L418.137 205.997L410.051 159.892C411.271 155.62 411.449 151.118 410.571 146.763V146.763Z" fill="#FBBEBE"/>
<path d="M546.945 267.847L446.723 248.1L418.558 163.402L386.997 170.867L418.659 295.987L532.104 310.912L546.945 267.847Z" fill="#6385FF"/>
<path d="M394.31 11.0886C394.211 11.1841 394.121 11.2846 394.024 11.3809C378.847 -3.67697 354.405 -3.80944 339.066 11.0829C323.672 26.034 323.152 50.578 337.898 66.1677L337.888 66.177L338.256 66.5551L392.559 122.459L448.85 67.7964L448.694 67.6353C448.788 67.5452 448.887 67.4617 448.98 67.3704C464.525 52.2758 464.887 27.4401 449.79 11.8983C434.693 -3.64347 409.854 -4.00596 394.31 11.0886V11.0886Z" fill="#FF6363"/>
<path d="M407.74 288.351C407.559 288.527 407.392 288.712 407.213 288.889C379.261 261.156 334.245 260.912 305.994 288.34C277.642 315.877 276.684 361.081 303.843 389.794L303.826 389.811L304.502 390.507L404.517 493.469L508.191 392.793L507.902 392.497C508.077 392.331 508.258 392.177 508.431 392.009C537.06 364.208 537.727 318.467 509.922 289.842C482.117 261.218 436.369 260.55 407.74 288.351L407.74 288.351Z" fill="#FF6363"/>
<path d="M584.023 434.081C584.023 434.081 602.897 478.429 582.135 488.809C561.373 499.188 504.505 507.68 490.471 488.809C476.438 469.937 471.719 383.128 471.719 383.128L426.421 446.348L400.94 430.307C400.94 430.307 431.139 323.683 456.62 318.021C482.1 312.36 550.048 380.297 550.048 380.297L584.023 434.081H584.023Z" fill="#2F2E41"/>
<path d="M412.265 424.646L392.447 444.461L365.079 458.614L367.91 483.147L419.815 477.486L426.421 464.276L424.533 452.953L428.308 435.025L412.265 424.646Z" fill="#FBBEBE"/>
<path d="M371.685 473.711L370.064 452.894L314.118 479.373C314.118 479.373 309.785 491.639 323.276 493.527C336.767 495.414 426.421 495.414 426.421 490.696C426.421 485.978 428.873 461.824 428.873 461.824L374.516 477.486L371.685 473.711H371.685Z" fill="#2F2E41"/>
<path d="M412.928 402.861C401.867 403.957 393.468 410.552 394.167 417.59C394.867 424.627 404.398 429.441 415.462 428.343C419.888 427.965 424.159 426.532 427.917 424.166L474.721 418.928L472.602 400.427L425.965 404.509C421.813 402.927 417.343 402.361 412.928 402.861V402.861Z" fill="#FBBEBE"/>
<path d="M545.33 277.448L517.018 375.58L430.196 396.338L434.914 428.42L562.317 407.661L586.963 295.941L545.33 277.448Z" fill="#6385FF"/>
</g>
<defs>
<clipPath id="clip0_1_56">
<rect width="769" height="500" fill="white"/>
</clipPath>
</defs>
</svg>
